<svg xmlns="http://www.w3.org/2000/svg" width="40" height="34" viewBox="0 0 40 34" fill="none">
  <path d="M0 33.4V29.5C0.966667 29.5 1.79167 29.35 2.475 29.05C3.15833 28.75 3.85 28.425 4.55 28.075C5.25 27.725 6.025 27.4083 6.875 27.125C7.725 26.8417 8.775 26.7 10.025 26.7C11.275 26.7 12.3083 26.8417 13.125 27.125C13.9417 27.4083 14.7 27.725 15.4 28.075C16.1 28.425 16.8 28.75 17.5 29.05C18.2 29.35 19.0333 29.5 20 29.5C20.9667 29.5 21.8 29.35 22.5 29.05C23.2 28.75 23.9 28.425 24.6 28.075C25.3 27.725 26.0667 27.4083 26.9 27.125C27.7333 26.8417 28.775 26.7 30.025 26.7C31.275 26.7 32.3167 26.8417 33.15 27.125C33.9833 27.4083 34.75 27.725 35.45 28.075C36.15 28.425 36.85 28.75 37.55 29.05C38.25 29.35 39.0667 29.5 40 29.5V33.4C38.7333 33.4 37.675 33.25 36.825 32.95C35.975 32.65 35.2 32.325 34.5 31.975C33.8 31.625 33.1167 31.3083 32.45 31.025C31.7833 30.7417 30.9667 30.6 30 30.6C29.0667 30.6 28.2583 30.7417 27.575 31.025C26.8917 31.3083 26.2083 31.625 25.525 31.975C24.8417 32.325 24.075 32.65 23.225 32.95C22.375 33.25 21.3 33.4 20 33.4C18.7 33.4 17.625 33.25 16.775 32.95C15.925 32.65 15.1583 32.325 14.475 31.975C13.7917 31.625 13.1167 31.3083 12.45 31.025C11.7833 30.7417 10.975 30.6 10.025 30.6C9.075 30.6 8.25833 30.7417 7.575 31.025C6.89167 31.3083 6.2 31.625 5.5 31.975C4.8 32.325 4.025 32.65 3.175 32.95C2.325 33.25 1.26667 33.4 0 33.4V33.4M0 24.5V20.6C0.966667 20.6 1.79167 20.45 2.475 20.15C3.15833 19.85 3.85 19.525 4.55 19.175C5.25 18.825 6.025 18.5083 6.875 18.225C7.725 17.9417 8.775 17.8 10.025 17.8C11.275 17.8 12.3083 17.9417 13.125 18.225C13.9417 18.5083 14.7 18.825 15.4 19.175C16.1 19.525 16.8 19.85 17.5 20.15C18.2 20.45 19.0333 20.6 20 20.6C20.9667 20.6 21.8 20.45 22.5 20.15C23.2 19.85 23.9 19.525 24.6 19.175C25.3 18.825 26.0667 18.5083 26.9 18.225C27.7333 17.9417 28.7667 17.8 30 17.8C31.2667 17.8 32.3167 17.9417 33.15 18.225C33.9833 18.5083 34.75 18.825 35.45 19.175C36.15 19.525 36.85 19.85 37.55 20.15C38.25 20.45 39.0667 20.6 40 20.6V24.5C38.7333 24.5 37.675 24.35 36.825 24.05C35.975 23.75 35.2 23.425 34.5 23.075C33.8 22.725 33.1167 22.4083 32.45 22.125C31.7833 21.8417 30.9667 21.7 30 21.7C29.0333 21.7 28.2083 21.8417 27.525 22.125C26.8417 22.4083 26.1583 22.725 25.475 23.075C24.7917 23.425 24.0333 23.75 23.2 24.05C22.3667 24.35 21.3 24.5 20 24.5C18.7 24.5 17.625 24.35 16.775 24.05C15.925 23.75 15.1583 23.425 14.475 23.075C13.7917 22.725 13.1167 22.4083 12.45 22.125C11.7833 21.8417 10.975 21.7 10.025 21.7C9.075 21.7 8.25833 21.8417 7.575 22.125C6.89167 22.4083 6.2 22.725 5.5 23.075C4.8 23.425 4.025 23.75 3.175 24.05C2.325 24.35 1.26667 24.5 0 24.5V24.5M0 15.6V11.7C0.966667 11.7 1.79167 11.55 2.475 11.25C3.15833 10.95 3.85 10.625 4.55 10.275C5.25 9.925 6.025 9.60833 6.875 9.325C7.725 9.04167 8.775 8.9 10.025 8.9C11.275 8.9 12.3083 9.04167 13.125 9.325C13.9417 9.60833 14.7 9.925 15.4 10.275C16.1 10.625 16.8 10.95 17.5 11.25C18.2 11.55 19.0333 11.7 20 11.7C20.9667 11.7 21.8 11.55 22.5 11.25C23.2 10.95 23.9 10.625 24.6 10.275C25.3 9.925 26.0667 9.60833 26.9 9.325C27.7333 9.04167 28.7667 8.9 30 8.9C31.2667 8.9 32.3167 9.04167 33.15 9.325C33.9833 9.60833 34.75 9.925 35.45 10.275C36.15 10.625 36.85 10.95 37.55 11.25C38.25 11.55 39.0667 11.7 40 11.7V15.6C38.7333 15.6 37.675 15.45 36.825 15.15C35.975 14.85 35.2 14.525 34.5 14.175C33.8 13.825 33.1167 13.5083 32.45 13.225C31.7833 12.9417 30.9667 12.8 30 12.8C29.0667 12.8 28.2583 12.9417 27.575 13.225C26.8917 13.5083 26.2083 13.825 25.525 14.175C24.8417 14.525 24.075 14.85 23.225 15.15C22.375 15.45 21.3 15.6 20 15.6C18.7 15.6 17.625 15.45 16.775 15.15C15.925 14.85 15.1583 14.525 14.475 14.175C13.7917 13.825 13.1167 13.5083 12.45 13.225C11.7833 12.9417 10.975 12.8 10.025 12.8C9.075 12.8 8.25833 12.9417 7.575 13.225C6.89167 13.5083 6.2 13.825 5.5 14.175C4.8 14.525 4.025 14.85 3.175 15.15C2.325 15.45 1.26667 15.6 0 15.6V15.6M0 6.7V2.8C0.966667 2.8 1.79167 2.65 2.475 2.35C3.15833 2.05 3.85 1.725 4.55 1.375C5.25 1.025 6.025 0.708333 6.875 0.425C7.725 0.141667 8.775 0 10.025 0C11.275 0 12.3083 0.141667 13.125 0.425C13.9417 0.708333 14.7 1.025 15.4 1.375C16.1 1.725 16.8 2.05 17.5 2.35C18.2 2.65 19.0333 2.8 20 2.8C20.9667 2.8 21.8 2.65 22.5 2.35C23.2 2.05 23.9 1.725 24.6 1.375C25.3 1.025 26.0667 0.708333 26.9 0.425C27.7333 0.141667 28.7667 0 30 0C31.2667 0 32.3167 0.141667 33.15 0.425C33.9833 0.708333 34.75 1.025 35.45 1.375C36.15 1.725 36.85 2.05 37.55 2.35C38.25 2.65 39.0667 2.8 40 2.8V6.7C38.7333 6.7 37.675 6.55 36.825 6.25C35.975 5.95 35.2 5.625 34.5 5.275C33.8 4.925 33.1167 4.60833 32.45 4.325C31.7833 4.04167 30.9667 3.9 30 3.9C29.0667 3.9 28.2583 4.04167 27.575 4.325C26.8917 4.60833 26.2083 4.925 25.525 5.275C24.8417 5.625 24.075 5.95 23.225 6.25C22.375 6.55 21.3 6.7 20 6.7C18.7 6.7 17.625 6.55 16.775 6.25C15.925 5.95 15.1583 5.625 14.475 5.275C13.7917 4.925 13.1167 4.60833 12.45 4.325C11.7833 4.04167 10.975 3.9 10.025 3.9C9.075 3.9 8.25833 4.04167 7.575 4.325C6.89167 4.60833 6.2 4.925 5.5 5.275C4.8 5.625 4.025 5.95 3.175 6.25C2.325 6.55 1.26667 6.7 0 6.7V6.7" fill="#BEC9C4"/>
</svg>